# xmcd
#
# Track frame offsets:
# 150
# 10582
# 22757
# 40095
# 51950
# 62700
# 76485
# 97355
# 113165
# 125480
# 140247
# 166400
# 180837
# 195122
# 209430
# 224467
#
# Disc length: 3172 seconds
#
#
# Revision: 0
# Processed by: cddbd v1.5.2PL0 Copyright (c) Steve Scherf et al.
# Submitted via: Nero 7, 0, 8, 2 
#
DISCID=da0c6210
DTITLE=Louis Armstrong - The Wonderful World
DYEAR=2011
DGENRE=Blues
TTITLE0=The Wonderful World
TTITLE1=The Wonderful World
TTITLE2=The Wonderful World
TTITLE3=The Wonderful World
TTITLE4=The Wonderful World
TTITLE5=The Wonderful World
TTITLE6=The Wonderful World
TTITLE7=The Wonderful World
TTITLE8=The Wonderful World
TTITLE9=The Wonderful World
TTITLE10=The Wonderful World
TTITLE11=The Wonderful World
TTITLE12=The Wonderful World
TTITLE13=The Wonderful World
TTITLE14=The Wonderful World
TTITLE15=The Wonderful World
EXTD=
EXTT0=
EXTT1=
EXTT2=
EXTT3=
EXTT4=
EXTT5=
EXTT6=
EXTT7=
EXTT8=
EXTT9=
EXTT10=
EXTT11=
EXTT12=
EXTT13=
EXTT14=
EXTT15=
PLAYORDER=
